<?xml version="1.0" standalone="no"?>
<!DOCTYPE svg PUBLIC "-//W3C//DTD SVG 20010904//EN"
 "http://www.w3.org/TR/2001/REC-SVG-20010904/DTD/svg10.dtd">
<svg version="1.0" xmlns="http://www.w3.org/2000/svg"
 width="421.000000pt" height="120.000000pt" viewBox="0 0 421.000000 120.000000"
 preserveAspectRatio="xMidYMid meet">

<g transform="translate(0.000000,120.000000) scale(0.100000,-0.100000)"
fill="#000000" stroke="none">
<path d="M1363 983 c-37 -5 -43 -18 -13 -26 19 -5 20 -14 20 -200 0 -187 -1
-196 -20 -202 -42 -13 -17 -25 55 -25 77 0 92 8 53 25 -23 10 -23 13 -26 223
-3 235 4 214 -69 205z"/>
<path d="M2440 981 c-111 -34 -170 -116 -170 -238 0 -145 73 -217 220 -217 58
0 85 5 118 22 23 13 47 20 52 17 6 -4 10 17 10 50 0 54 2 57 30 68 17 6 30 14
30 17 0 3 -47 5 -105 5 -58 0 -105 -2 -105 -5 0 -3 13 -11 30 -17 38 -14 46
-35 31 -82 -12 -41 -42 -61 -93 -61 -50 0 -112 70 -129 144 -22 99 14 217 80
262 69 47 144 19 183 -67 13 -27 26 -49 30 -49 10 0 11 134 1 143 -3 4 -12 2
-19 -4 -9 -7 -28 -6 -65 5 -57 17 -89 19 -129 7z"/>
<path d="M3395 985 c-5 -2 -22 -6 -37 -9 -42 -9 -128 -84 -149 -129 -89 -196
126 -397 319 -298 209 108 156 406 -78 435 -25 3 -49 4 -55 1z m95 -37 c54
-37 81 -104 81 -198 0 -130 -57 -210 -150 -210 -75 0 -146 99 -146 204 1 174
109 276 215 204z"/>
<path d="M530 974 c0 -5 14 -15 30 -21 l30 -11 0 -180 c0 -151 -3 -183 -16
-196 -8 -9 -22 -16 -30 -16 -8 0 -14 -5 -14 -11 0 -19 318 -7 355 13 147 80
138 320 -16 399 -33 16 -68 21 -189 26 -91 4 -150 2 -150 -3z m241 -25 c110
-37 165 -190 112 -311 -25 -55 -57 -79 -117 -85 -38 -5 -48 -2 -70 20 l-26 26
0 181 0 180 34 0 c18 0 48 -5 67 -11z"/>
<path d="M2750 971 c0 -6 6 -11 14 -11 8 0 22 -7 30 -16 13 -13 16 -45 16
-189 0 -144 -3 -176 -16 -189 -8 -9 -22 -16 -30 -16 -8 0 -14 -4 -14 -10 0 -6
42 -10 105 -10 63 0 105 4 105 10 0 6 -9 10 -19 10 -33 0 -48 35 -50 115 -2
74 -2 75 23 75 33 0 65 -41 106 -134 l34 -76 58 0 c61 0 73 8 36 25 -12 6 -40
46 -65 95 -24 46 -49 88 -56 93 -9 6 -9 10 3 14 8 4 27 19 42 34 50 49 30 145
-34 169 -46 17 -288 26 -288 11z m215 -25 c27 -11 36 -23 45 -55 20 -74 -22
-131 -96 -131 -24 0 -24 1 -24 93 0 52 3 97 7 100 10 11 30 8 68 -7z"/>
<path d="M1899 956 c-89 -19 -145 -66 -188 -156 -22 -46 -26 -69 -26 -140 0
-109 18 -144 94 -183 46 -23 66 -27 130 -26 107 1 125 8 129 46 3 32 3 32 -30
22 -54 -15 -149 -11 -188 9 -53 26 -72 72 -66 155 9 123 62 195 160 217 76 17
158 -5 190 -52 38 -53 8 -199 -42 -206 -32 -5 -35 13 -17 103 8 44 15 83 15
88 0 14 -51 7 -57 -8 -5 -14 -7 -14 -22 -1 -29 26 -73 29 -108 7 -45 -28 -66
-74 -67 -149 -1 -55 2 -66 23 -83 30 -24 67 -24 109 1 l33 20 29 -21 c52 -39
132 -12 166 58 28 56 27 191 -2 230 -44 61 -161 92 -265 69z m64 -184 c32 -36
-16 -139 -61 -130 -39 8 -40 90 -1 129 24 24 41 24 62 1z"/>
<path d="M1120 798 c-73 -38 -100 -119 -63 -195 23 -49 66 -73 131 -73 46 0
58 4 83 29 29 30 37 51 19 51 -5 0 -10 -4 -10 -9 0 -21 -34 -41 -68 -41 -61 1
-102 47 -102 114 l0 36 90 0 c80 0 90 2 90 18 0 39 -62 92 -107 92 -10 0 -39
-10 -63 -22z m92 -15 c10 -9 18 -24 18 -35 0 -15 -8 -18 -60 -18 -33 0 -60 4
-60 9 0 4 9 20 21 35 23 30 54 33 81 9z"/>
<path d="M720 290 c0 -5 5 -10 11 -10 5 0 7 5 4 10 -3 6 -8 10 -11 10 -2 0 -4
-4 -4 -10z"/>
<path d="M975 290 c-3 -5 -1 -10 4 -10 6 0 11 5 11 10 0 6 -2 10 -4 10 -3 0
-8 -4 -11 -10z"/>
<path d="M1020 228 l0 -73 30 -2 c39 -3 67 35 50 66 -16 30 -32 26 -18 -4 9
-21 9 -29 -4 -42 -22 -21 -40 -7 -38 31 4 61 0 96 -10 96 -6 0 -10 -31 -10
-72z"/>
<path d="M1325 290 c-3 -5 -1 -10 4 -10 6 0 11 5 11 10 0 6 -2 10 -4 10 -3 0
-8 -4 -11 -10z"/>
<path d="M2285 290 c-3 -5 -1 -10 4 -10 6 0 11 5 11 10 0 6 -2 10 -4 10 -3 0
-8 -4 -11 -10z"/>
<path d="M3228 240 c3 -39 0 -65 -8 -75 -10 -13 -9 -15 10 -15 16 0 20 4 16
16 -3 9 -6 42 -6 75 0 32 -4 59 -8 59 -5 0 -6 -27 -4 -60z"/>
<path d="M558 220 l-3 -70 35 0 c29 1 32 2 18 11 -14 8 -18 23 -18 69 0 45 -4
60 -14 60 -11 0 -15 -18 -18 -70z"/>
<path d="M640 270 c24 -24 26 -67 3 -99 -12 -18 -13 -22 -2 -16 33 19 49 40
49 65 0 29 -32 70 -55 70 -11 0 -10 -5 5 -20z"/>
<path d="M845 253 c-6 -10 -8 -36 -5 -58 4 -30 10 -41 25 -43 13 -2 16 0 8 5
-6 5 -13 32 -15 61 -2 42 -5 49 -13 35z"/>
<path d="M715 195 c0 -33 4 -45 15 -45 12 0 14 10 12 45 -2 25 -9 45 -16 45
-6 0 -11 -18 -11 -45z"/>
<path d="M766 231 c-6 -9 0 -20 19 -35 20 -16 25 -25 16 -30 -6 -4 -18 -2 -26
4 -9 7 -15 8 -15 2 0 -13 26 -23 45 -16 21 9 19 42 -4 49 -11 3 -21 14 -23 23
-3 14 -5 14 -12 3z"/>
<path d="M895 195 c0 -34 4 -45 15 -45 12 0 15 9 12 40 -4 38 -3 40 23 40 26
0 27 -2 23 -40 -3 -31 0 -40 12 -40 12 0 14 10 12 45 l-4 45 -47 0 -46 0 0
-45z"/>
<path d="M1128 201 c4 -36 25 -61 40 -46 3 3 0 5 -6 5 -7 0 -12 16 -12 40 0
26 -5 40 -13 40 -9 0 -11 -12 -9 -39z"/>
<path d="M1186 198 c1 -25 7 -44 14 -46 9 -3 11 2 7 19 -4 13 -7 34 -7 47 0
12 -3 22 -7 22 -5 0 -7 -19 -7 -42z"/>
<path d="M1242 228 c-21 -21 -14 -57 13 -70 19 -8 28 -9 37 0 8 8 5 9 -10 5
-17 -4 -23 1 -28 21 -3 14 -4 33 0 41 7 18 4 19 -12 3z"/>
<path d="M1285 230 c3 -5 8 -10 11 -10 2 0 4 5 4 10 0 6 -5 10 -11 10 -5 0 -7
-4 -4 -10z"/>
<path d="M1318 195 c-3 -39 0 -45 15 -45 13 0 17 5 13 16 -3 9 -6 29 -6 45 0
46 -18 34 -22 -16z"/>
<path d="M1382 228 c-39 -39 17 -100 58 -63 23 20 26 45 8 63 -17 17 -33 15
-18 -3 15 -18 5 -65 -15 -65 -21 0 -34 30 -24 57 10 26 8 28 -9 11z"/>
<path d="M1478 195 c-3 -39 0 -45 15 -45 13 0 17 5 13 16 -3 9 -6 29 -6 45 0
46 -18 34 -22 -16z"/>
<path d="M1535 195 c0 -34 4 -45 16 -45 12 0 14 8 10 42 -8 57 -26 59 -26 3z"/>
<path d="M1592 228 c-26 -26 -2 -78 36 -78 13 0 12 3 -6 16 -32 22 -28 44 9
44 31 0 37 19 9 28 -7 3 -10 0 -6 -7 5 -7 -1 -11 -14 -11 -12 0 -18 5 -15 10
8 14 2 13 -13 -2z"/>
<path d="M1715 230 c3 -5 8 -10 11 -10 2 0 4 5 4 10 0 6 -5 10 -11 10 -5 0 -7
-4 -4 -10z"/>
<path d="M1810 221 c27 -51 30 -70 12 -87 -12 -13 -13 -16 -2 -12 8 2 20 19
27 37 8 18 9 30 4 27 -5 -4 -12 7 -16 24 -4 17 -13 30 -21 30 -11 0 -12 -4 -4
-19z"/>
<path d="M1955 230 c-5 -9 -1 -19 13 -31 25 -19 28 -35 10 -42 -8 -4 -9 -6 -2
-6 6 -1 18 6 25 15 11 14 10 19 -7 33 -12 9 -23 23 -26 31 -4 12 -6 12 -13 0z"/>
<path d="M1985 230 c3 -5 8 -10 11 -10 2 0 4 5 4 10 0 6 -5 10 -11 10 -5 0 -7
-4 -4 -10z"/>
<path d="M2030 225 c-32 -39 25 -96 59 -59 15 17 15 17 -1 5 -15 -11 -21 -11
-33 -1 -25 21 -18 40 16 40 31 0 37 19 9 28 -7 3 -10 0 -6 -7 5 -7 -1 -11 -14
-11 -12 0 -18 5 -15 10 9 15 -1 12 -15 -5z"/>
<path d="M2118 195 c-2 -35 0 -45 12 -45 11 0 15 11 15 37 0 31 4 39 22 41 17
2 24 -5 34 -32 14 -39 23 -45 33 -21 3 8 1 15 -4 15 -5 0 -12 11 -16 25 -5 22
-12 25 -49 25 l-43 0 -4 -45z"/>
<path d="M2275 195 c0 -33 4 -45 15 -45 12 0 14 10 12 45 -2 25 -9 45 -16 45
-6 0 -11 -18 -11 -45z"/>
<path d="M2330 221 c-5 -11 -10 -24 -10 -30 0 -15 30 -41 47 -41 11 0 9 5 -8
19 -21 16 -22 22 -11 45 13 30 -2 36 -18 7z"/>
<path d="M2380 230 c0 -5 5 -10 11 -10 5 0 7 5 4 10 -3 6 -8 10 -11 10 -2 0
-4 -4 -4 -10z"/>
<path d="M2425 195 c0 -27 4 -45 11 -45 7 0 11 17 10 45 -1 59 -21 59 -21 0z"/>
<path d="M2482 228 c-39 -39 17 -100 58 -63 23 20 26 45 8 63 -17 17 -33 15
-18 -2 18 -23 9 -61 -15 -61 -16 0 -20 7 -20 38 0 20 0 37 0 37 -1 0 -6 -5
-13 -12z"/>
<path d="M2583 224 c-3 -9 3 -21 16 -30 27 -19 27 -38 1 -31 -11 3 -20 1 -20
-5 0 -5 10 -8 23 -6 30 4 35 43 7 58 -11 6 -18 15 -15 21 4 5 4 9 0 9 -3 0 -8
-7 -12 -16z"/>
<path d="M2615 230 c3 -5 8 -10 11 -10 2 0 4 5 4 10 0 6 -5 10 -11 10 -5 0 -7
-4 -4 -10z"/>
<path d="M2705 180 c0 -81 22 -81 27 0 2 48 0 60 -12 60 -12 0 -15 -13 -15
-60z"/>
<path d="M2768 209 c3 -24 0 -36 -14 -46 -10 -7 -13 -13 -8 -13 6 0 18 6 28
13 19 14 19 68 0 74 -7 2 -9 -8 -6 -28z"/>
<path d="M2820 229 c0 -5 5 -7 10 -4 6 3 10 8 10 11 0 2 -4 4 -10 4 -5 0 -10
-5 -10 -11z"/>
<path d="M2855 230 c5 -8 -3 -21 -20 -34 -16 -13 -25 -27 -22 -33 3 -5 32 -10
64 -11 l58 -2 -3 39 c-3 32 0 40 15 44 11 3 6 5 -12 6 -30 1 -30 0 -27 -39 3
-31 1 -40 -11 -40 -11 0 -17 12 -19 37 -2 20 -9 39 -17 41 -9 3 -11 0 -6 -8z
m-4 -63 c-16 -16 -26 0 -10 19 9 11 15 12 17 4 2 -6 -1 -17 -7 -23z"/>
<path d="M2980 229 c0 -5 5 -7 10 -4 6 3 10 8 10 11 0 2 -4 4 -10 4 -5 0 -10
-5 -10 -11z"/>
<path d="M3024 203 c1 -37 10 -53 31 -53 5 0 4 5 -3 12 -7 7 -12 27 -12 45 0
18 -4 33 -8 33 -5 0 -8 -17 -8 -37z"/>
<path d="M3118 215 c-9 -21 -8 -28 7 -45 10 -11 24 -20 32 -20 9 0 7 6 -7 20
-28 28 -25 40 11 40 31 0 37 19 9 28 -7 3 -10 0 -6 -7 4 -6 0 -11 -9 -11 -9 0
-13 5 -10 10 3 6 1 10 -5 10 -6 0 -16 -11 -22 -25z"/>
<path d="M3320 229 c0 -5 5 -7 10 -4 6 3 10 8 10 11 0 2 -4 4 -10 4 -5 0 -10
-5 -10 -11z"/>
<path d="M3362 199 c2 -23 8 -44 13 -46 7 -2 9 12 7 37 -6 55 -24 64 -20 9z"/>
<path d="M3414 226 c-3 -7 -4 -17 -3 -22 1 -5 0 -11 -1 -14 -8 -21 -9 -60 0
-65 5 -3 7 0 4 8 -7 18 25 32 40 17 8 -8 7 -14 -4 -21 -12 -8 -11 -9 5 -7 30
5 26 42 -5 48 -21 4 -25 11 -25 38 0 35 -3 40 -11 18z"/>
<path d="M3445 215 c0 -14 5 -23 10 -21 6 2 9 11 9 20 -1 10 6 16 18 16 18 0
20 -5 15 -40 -4 -33 -2 -40 12 -40 13 0 16 8 13 39 -3 32 0 40 15 44 10 3 -7
5 -37 6 -52 1 -55 0 -55 -24z"/>
<path d="M3582 228 c-32 -32 4 -87 48 -73 38 12 34 85 -4 85 -7 0 -6 -4 2 -9
22 -13 11 -66 -13 -66 -16 0 -20 7 -20 38 0 20 0 37 0 37 -1 0 -6 -5 -13 -12z"/>
<path d="M1680 219 c0 -6 10 -19 23 -30 19 -16 20 -20 7 -30 -13 -9 -13 -10 0
-6 26 6 23 43 -4 61 -16 10 -26 12 -26 5z"/>
<path d="M2991 191 c-8 -5 -11 -16 -8 -25 10 -24 22 -19 22 9 0 14 0 25 0 25
0 0 -6 -4 -14 -9z"/>
<path d="M3322 188 c-8 -8 -9 -15 -1 -25 17 -19 24 -16 24 12 0 28 -5 31 -23
13z"/>
<path d="M1951 164 c0 -11 3 -14 6 -6 3 7 2 16 -1 19 -3 4 -6 -2 -5 -13z"/>
</g>
</svg>
